# xmcd
#
# Track frame offsets: 
#        150
#        18517
#        30185
#        48062
#        66437
#        87520
#        108065
#        125890
#        144270
#        161745
#        190022
#
# Disc length: 2703 seconds
#
# Revision: 0
# Processed by: cddbd v1.5.2PL0 Copyright (c) Steve Scherf et al.
# Submitted via: ExactAudioCopyFreeDBPlugin 1.0
#
DISCID=8a0a8d0b
DTITLE=Various Artist - Gotta Get It Hits - R and B
DYEAR=1900
DGENRE=R&B
TTITLE0=Boyz II Men - Pass You By
TTITLE1=Sisqo - Got To Get It
TTITLE2=Avant - Let's Make A Deal
TTITLE3=Musiq - Just Friends
TTITLE4=Brian McKnight - Stay Or Let It Go
TTITLE5=Montell Jordan - Once Upon A Time
TTITLE6=Mya - Case Of The Ex (Whatcha Gonna Do)
TTITLE7=Common - The Light
TTITLE8=Dwayne Wiggins - What's Really Going On (Strange Fruit)
TTITLE9=K-Ci and JoJo - All My LIfe
TTITLE10=Data
EXTD=
EXTT0=
EXTT1=
EXTT2=
EXTT3=
EXTT4=
EXTT5=
EXTT6=
EXTT7=
EXTT8=
EXTT9=
EXTT10=
PLAYORDER=
